<?xml version="1.0" encoding="UTF-8" standalone="no"?>
<!DOCTYPE svg PUBLIC "-//W3C//DTD SVG 1.1//EN"
 "http://www.w3.org/Graphics/SVG/1.1/DTD/svg11.dtd">
<!-- Generated by graphviz version 2.38.0 (20140413.2041)
 -->
<!-- Title: G Pages: 1 -->
<svg width="167pt" height="165pt"
 viewBox="0.00 0.00 167.21 165.00" xmlns="http://www.w3.org/2000/svg" xmlns:xlink="http://www.w3.org/1999/xlink">
<g id="graph0" class="graph" transform="scale(1 1) rotate(0) translate(4 161)">
<title>G</title>
<polygon fill="white" stroke="none" points="-4,4 -4,-161 163.213,-161 163.213,4 -4,4"/>
<g id="clust1" class="cluster"><title>cluster_Global</title>
<path fill="none" stroke="gray" d="M20,-8C20,-8 139.213,-8 139.213,-8 145.213,-8 151.213,-14 151.213,-20 151.213,-20 151.213,-137 151.213,-137 151.213,-143 145.213,-149 139.213,-149 139.213,-149 20,-149 20,-149 14,-149 8,-143 8,-137 8,-137 8,-20 8,-20 8,-14 14,-8 20,-8"/>
<text text-anchor="middle" x="79.6064" y="-136.2" font-family="Times,serif" font-size="11.00" fill="gray">Global</text>
</g>
<g id="clust2" class="cluster"><title>cluster_\Afrihost</title>
<path fill="none" stroke="gray" d="M28,-16C28,-16 131.213,-16 131.213,-16 137.213,-16 143.213,-22 143.213,-28 143.213,-28 143.213,-110 143.213,-110 143.213,-116 137.213,-122 131.213,-122 131.213,-122 28,-122 28,-122 22,-122 16,-116 16,-110 16,-110 16,-28 16,-28 16,-22 22,-16 28,-16"/>
<text text-anchor="middle" x="79.6064" y="-109.2" font-family="Times,serif" font-size="11.00" fill="gray">Afrihost</text>
</g>
<g id="clust3" class="cluster"><title>cluster_\Afrihost\SwarmProcess</title>
<path fill="none" stroke="gray" d="M36,-24C36,-24 123.213,-24 123.213,-24 129.213,-24 135.213,-30 135.213,-36 135.213,-36 135.213,-83 135.213,-83 135.213,-89 129.213,-95 123.213,-95 123.213,-95 36,-95 36,-95 30,-95 24,-89 24,-83 24,-83 24,-36 24,-36 24,-30 30,-24 36,-24"/>
<text text-anchor="middle" x="79.6064" y="-82.2" font-family="Times,serif" font-size="11.00" fill="gray">SwarmProcess</text>
</g>
<!-- \\Afrihost\\SwarmProcess\\SwarmProcess -->
<g id="node1" class="node"><title>\\Afrihost\\SwarmProcess\\SwarmProcess</title>
<polygon fill="none" stroke="black" points="127.32,-68 31.8933,-68 31.8933,-32 127.32,-32 127.32,-68"/>
<text text-anchor="middle" x="79.6064" y="-46.7" font-family="Courier,monospace" font-size="11.00">SwarmProcess</text>
</g>
</g>
</svg>
